# xmcd CD database file
#
# Track frame offsets:
#	150
#	23924
#	48823
#	71698
#	99897
#	129596
#	152021
#	183969
#	209619
#	239244
#	270368
#
# Disc length: 3959 seconds
#
# Revision: 6
# Processed by: cddbd v1.5.1PL2 Copyright (c) Steve Scherf et al.
# Submitted via: CDex 1.51
#
DISCID=940f750b
DTITLE=Jay Leonhart Trio - Fly Me To The Moon - Tribute To Ray Brown
DYEAR=2004
DGENRE=General Jazz
TTITLE0=When Lights Are Low
TTITLE1=On The Street Where You Live
TTITLE2=Skylark
TTITLE3=There Is No Greater Love
TTITLE4=That Old Feeling
TTITLE5=Just In TIme
TTITLE6=Alone Together
TTITLE7=Fly Me To The Moon
TTITLE8=I've Got The World On A String
TTITLE9=Dream Dancing
TTITLE10=Some Other TIme
EXTD=
EXTT0=
EXTT1=
EXTT2=
EXTT3=
EXTT4=
EXTT5=
EXTT6=
EXTT7=
EXTT8=
EXTT9=
EXTT10=
PLAYORDER=
